#!OML:ASF E:/inclinewalkrobotboard/Project1/Captureday1/Session1/subject1.ASF
:FULLY-SPECIFIED
:DEGREES
363
root 0 0 0 2.0258551229875588 -9.270207869196426 1.5318714361058714
lowerback 0.8693169686176483 -1.6458142346387605 -3.323941683716974
upperback -0.642697727381766 -2.123716292550778 2.4237961024977133
thorax -0.8910780122168765 -1.0333599808985192 4.336708876356859
lowerneck -31.381826101186473 -2.386035490072052 -7.522651672095592
upperneck 5.318363465214258 -1.1885463250219217 5.704416813239167
head 6.3336543903095155 -0.05622367399891687 2.895681670255816
rclavicle -1.8216823340328028E-16 -2.9552141692067643E-15
rhumerus -32.55906686639343 -4.972420202801839 -79.99206715228507
rradius 29.845660552221506
rwrist 18.529444428480478
rhand -17.631143826605186 9.959414903687325
rfingers 7.125019999999944
rthumb 8.61952166407899 -19.897581376403416
lclavicle -4.12930133108313E-16 -1.5664550311238628E-15
lhumerus -9.885750462937951 6.998979714762682 88.56785127059608
lradius 61.65239460454008
lwrist -4.581762428192873
lhand -33.436765739656316 18.00001803441564
lfingers 7.125020000000005
lthumb -6.627355078851315 47.657447905946
rfemur -34.168767900191426 4.181890843072209 17.54957588645059
rtibia 25.344369011651416
rfoot -5.907783029921494 -12.636657350216872
rtoes -6.807524653522062
lfemur 17.274943942880945 -3.6536572661117397 -29.466678706167315
ltibia 21.486317803242123
lfoot -12.835962167496406 -6.345107942301494
ltoes -9.386078133081762
364
root 0 0 0 2.132875661377346 -9.39266682507765 1.6355458629788342
lowerback 0.7797712449841234 -1.7162161989687856 -3.3774124968948676
upperback -0.5700413921407701 -2.2277681493229187 2.462800705233249
thorax -0.7602623423227064 -1.0866651746703475 4.40308581584804
lowerneck -32.197857857673114 -2.4234628138751995 -7.5515210357238125
upperneck 4.356719465260378 -1.1871599251395895 5.81067100990991
head 6.107190018558107 -0.01317280321700029 2.922405474724217
rclavicle -8.402012099646601E-16 -3.709305293276885E-15
rhumerus -32.66033565986823 -4.981483039656732 -79.90445208416617
rradius 29.78934610413938
rwrist 18.676877414032973
rhand -17.59872988520551 9.870947109360692
rfingers 7.125019999999947
rthumb 8.649464437269147 -20.001082982369663
lclavicle -8.942451757975792E-16 -1.7381129718085078E-15
lhumerus -9.367297236532394 6.995605694626879 88.13240684537726
lradius 61.952038814724496
lwrist -4.66888222593417
lhand -33.52257831193386 18.01240312448596
lfingers 7.125020000000004
lthumb -6.705768670973569 47.66880649352994
rfemur -34.58014612886351 4.644519583035198 17.679797791072485
rtibia 23.146490288035608
rfoot -5.231698498253934 -12.39622966733469
rtoes -5.705443674585942
lfemur 20.23697013688574 -3.19355360853631 -27.87248938357691
ltibia 28.33715478663977
lfoot -7.901839476911344 -9.993236233030668
ltoes -14.554052160212642
365
root 0 0 0 2.1835559788164938 -9.45444702524858 1.6868787384633959
lowerback 0.7522913063796479 -1.752968759447228 -3.3965052489774545
upperback -0.5272098612911 -2.281922446047004 2.4855576245993922
thorax -0.6981124460759138 -1.1155342442501954 4.4338321681368615
lowerneck -32.616703408465796 -2.42918772082868 -7.546887655165738
upperneck 3.883410735235273 -1.1653061325829457 5.837280616799783
head 5.996475196329335 0.015435441776495848 2.92682684444197
rclavicle -2.185990963027004E-15 -4.175728608107397E-15
rhumerus -32.77920407202274 -5.131304668176778 -79.85290945367971
rradius 29.74802093927728
rwrist 18.85404324010087
rhand -17.536345827561803 9.756679206612736
rfingers 7.1250199999999495
rthumb 8.708790565985053 -20.12797045236246
lclavicle -1.2629285390230443E-15 -1.869681726475057E-15
lhumerus -8.879326156564979 7.259621762427552 87.8061170531488
lradius 62.06860279372479
lwrist -4.8306294166578905
lhand -33.63103740976104 17.94611531889707
lfingers 7.125020000000004
lthumb -6.808321055190264 47.59766380474101
rfemur -34.085722693039635 5.281872344926619 19.263684538326597
rtibia 21.248600522233563
rfoot -4.476633504378036 -11.831514649612469
rtoes -1.9642561678845993
lfemur 17.07095221127818 -2.0776582735254254 -24.634196609435588
ltibia 37.66230049506917
lfoot -1.063761620245537 -13.5222984198977
ltoes -17.180340667616502
366
root 0 0 0 2.152313212370361 -9.444626781820643 1.6668580272871014
lowerback 0.8149345784904782 -1.7537899940015027 -3.3571392936580997
upperback -0.507572283516164 -2.281853526954479 2.4824809551704616
thorax -0.7163048488000765 -1.116946925044404 4.404748434936087
lowerneck -32.625743950494126 -2.4215972782465656 -7.481052094001297
upperneck 3.9850432679030003 -1.143252159255981 5.739444675633261
head 6.0298844735693535 0.0147089785758351 2.885860412571512
rclavicle -3.117580929741003E-15 -4.269331598254131E-15
rhumerus -32.87099582930706 -5.377530695993615 -79.86199753833078
rradius 29.739631160864896
rwrist 18.99396378942326
rhand -17.465854018331342 9.65921539653916
rfingers 7.125019999999951
rthumb 8.776648108265942 -20.233289143334048
lclavicle -8.348093514188582E-16 -2.0322460428006177E-15
lhumerus -9.112053524787099 7.734020074051306 88.06323651215169
lradius 61.65397343370215
lwrist -4.92804299205907
lhand -33.62841790071634 17.791668060969602
lfingers 7.125020000000005
lthumb -6.806718804173653 47.44023079995377
rfemur -28.906843913823437 6.423896686674779 24.450536816285112
rtibia 19.368155130611882
rfoot -4.497365374869728 -10.402862191856586
rtoes 4.7656546145678185
lfemur 8.267199393363938 -1.1043637505714101 -20.3859308798718
ltibia 45.78559950982604
lfoot 6.164419868095944 -15.705341748031943
ltoes -15.479379704531215
367
root 0 0 0 2.037887232755467 -9.374508272834813 1.576849886329726
lowerback 0.9548992203193385 -1.7187007033009327 -3.2620762555823184
upperback -0.522364888590992 -2.2273234137253985 2.4531801227494348
thorax -0.8185933456416493 -1.09037776039832 4.318399982857953
lowerneck -32.20535503750767 -2.3924148583625655 -7.359729802242148
upperneck 4.707898769496243 -1.1061940955670482 5.50697645824485
head 6.223882846596432 -0.012598750807253575 2.799417451936075
rclavicle -3.58497404298048E-15 -3.982582501656661E-15
rhumerus -32.91749109970229 -5.65030701697286 -79.94067863101326
rradius 29.774464172782242
rwrist 19.096440037888012
rhand -17.401327638993347 9.575823331413785
rfingers 7.125019999999953
rthumb 8.840000521189845 -20.308583372809256
lclavicle -3.9751460104163096E-16 -2.0921596952038437E-15
lhumerus -9.712719526909504 8.434709389207232 88.69902066332081
lradius 60.920688775233046
lwrist -5.046303943796293
lhand -33.60033427702419 17.540859555471933
lfingers 7.125020000000007
lthumb -6.78184606365168 47.184409022799585
rfemur -17.00344512736093 7.3180606995854935 31.8955522793634
rtibia 22.603921939321545
rfoot -4.86561285662923 -7.995573574917451
rtoes 11.65887373626797
lfemur -0.953988869004059 -0.3280566008643928 -17.889955138355827
ltibia 51.6866376715165
lfoot 8.949871546673899 -15.111306782261094
ltoes -10.712874981619594
